# xmcd
#
# Track frame offsets: 
#        150
#        20695
#        39125
#        57492
#        79162
#        98050
#        118007
#        139205
#        159275
#        174522
#        195035
#        215010
#
# Disc length: 3131 seconds
#
# Revision: 0
# Processed by: cddbd v1.5.2PL0 Copyright (c) Steve Scherf et al.
# Submitted via: ExactAudioCopy v0.95b4
#
DISCID=980c390c
DTITLE=蔣志光 - 相逢何必曾相識(未來的語言)
DYEAR=1990
DGENRE=Vocal
TTITLE0=過去讓它過去
TTITLE1=永不回頭
TTITLE2=再見了我的愛
TTITLE3=酒逢知己
TTITLE4=你想說些什麼
TTITLE5=對不起
TTITLE6=HIMALAYS
TTITLE7=要走的還是要走
TTITLE8=醉後的夜
TTITLE9=未來是否要繼續
TTITLE10=相逢何必曾相識
TTITLE11=相逢何必曾相識(卡拉OK)
EXTD=
EXTT0=
EXTT1=
EXTT2=
EXTT3=
EXTT4=
EXTT5=
EXTT6=
EXTT7=
EXTT8=
EXTT9=
EXTT10=
EXTT11=
PLAYORDER=
